Coordinates
version=1
nRows=6
nColumns=107
inDegrees=yes

Units are S.I. units (second, meters, Newtons, ...)
If the header above contains a line with 'inDegrees', this indicates whether rotational values are in degrees (yes) or radians (no).

endheader
time	sternoclavicular_r2	sternoclavicular_r3	unrotscap_r3	unrotscap_r2	acromioclavicular_r2	acromioclavicular_r3	acromioclavicular_r1	unrothum_r1	unrothum_r3	unrothum_r2	elv_angle	shoulder_elv	shoulder1_r2	shoulder_rot	elbow_flexion	pro_sup	deviation	flexion	proximal_distal_r1	proximal_distal_r3	cmc_flexion	cmc_abduction	mp_flexion	ip_flexion	mcp2_flexion	mcp2_abduction	pm2_flexion	md2_flexion	mcp3_flexion	mcp3_abduction	pm3_flexion	md3_flexion	mcp4_flexion	mcp4_abduction	pm4_flexion	md4_flexion	mcp5_flexion	mcp5_abduction	pm5_flexion	md5_flexion	bicpt_tx	bicpt_ty	bicpt_tz	bicpt2_tx	bicpt2_ty	bicpt2_tz	ptpt_tx	ptpt_ty	ptpt_tz	FCUpt_tx	FCUpt_ty	FCUpt_tz	EDCpt_tx	EDCpt_ty	EDCpt_tz	APLpt_tx	APLpt_ty	APLpt_tz	FPLpt_tx	FPLpt_ty	FPLpt_tz	FPLpt2_tx	FPLpt2_ty	FPLpt2_tz	PEC1pt2_tx	PEC1pt2_ty	PEC1pt2_tz	PEC1pt3_tx	PEC1pt3_ty	PEC1pt3_tz	PEC2pt2_tx	PEC2pt2_ty	PEC2pt2_tz	PEC2pt3_tx	PEC2pt3_ty	PEC2pt3_tz	PEC3pt2_tx	PEC3pt2_ty	PEC3pt2_tz	PEC3pt3_tx	PEC3pt3_ty	PEC3pt3_tz	DELT2pt2a_tx	DELT2pt2a_ty	DELT2pt2a_tz	DELT2pt2_tx	DELT2pt2_ty	DELT2pt2_tz	LAT1pt2_tx	LAT1pt2_ty	LAT1pt2_tz	LAT1pt3_tx	LAT1pt3_ty	LAT1pt3_tz	LAT2pt2_tx	LAT2pt2_ty	LAT2pt2_tz	LAT2pt3_tx	LAT2pt3_ty	LAT2pt3_tz	LAT3pt2_tx	LAT3pt2_ty	LAT3pt2_tz	LAT3pt3_tx	LAT3pt3_ty	LAT3pt3_tz
      0.00000000	     -0.31372113	      0.13287746	     -0.13287746	      0.31372113	     -0.06352215	      0.51336365	      0.23075343	     -0.23075343	     -0.51336365	      0.06352215	    101.66257727	     74.27626559	     -1.77434670	    -37.67957802	     30.33959070	     78.24381326	      0.33170406	     -0.62965840	      0.36011101	     -0.31482920	     38.95091787	    -10.66925121	     -1.24539256	     10.12562101	     99.59062750	     12.74479669	     81.92182102	     71.69023707	     95.49870725	      1.41581313	     83.83641429	     52.38113251	     98.19378309	    -13.31630359	     89.85462315	     43.70120890	     99.77898745	    -14.15364441	     90.24540455	      5.52801788	      0.00090354	     -0.03107738	     -0.00486012	      0.01497284	     -0.01844190	     -0.00236210	      0.00176867	     -0.06863831	     -0.00635296	      0.01185628	     -0.18249185	     -0.00010718	     -0.00938924	      0.00316167	     -0.00052447	      0.00031220	      0.00012488	      0.00062441	      0.00039962	      0.00119887	      0.00067436	     -0.00001157	     -0.00013090	     -0.00015708	      0.00243461	      0.00854178	      0.00594211	     -0.00796407	      0.01922932	     -0.01823897	      0.00243461	      0.00854178	      0.00594211	      0.00053644	      0.01782632	     -0.00936707	      0.00387571	      0.00474997	      0.01578837	      0.00000000	      0.00737569	      0.00000000	     -0.00697372	     -0.03222767	     -0.00607923	      0.02188806	     -0.00102681	     -0.01156915	     -0.00086656	      0.01452515	     -0.00594211	      0.00239335	      0.02096243	     -0.01733114	     -0.00581831	      0.01258571	     -0.00532314	     -0.01213180	      0.02657442	     -0.02975180	     -0.02277807	      0.01407124	     -0.00713878	     -0.01510285	      0.03070088	     -0.03717943
      0.03333333	     -0.31416822	      0.13306683	     -0.13306683	      0.31416822	     -0.06361267	      0.51409525	      0.23108228	     -0.23108228	     -0.51409525	      0.06361267	    101.52220958	     74.38211826	     -1.77189682	    -37.02252542	     30.24960554	     77.60926259	      0.33624045	     -0.62862741	      0.36378724	     -0.31431371	     39.03672496	    -10.67885103	     -1.35568856	     10.61755771	     99.41409565	     12.73466363	     82.28643729	     69.76913006	     95.49825619	      1.35051262	     84.06817682	     51.48630868	     98.21001972	    -13.33808328	     90.01584494	     43.66383836	     99.75273039	    -14.15742457	     90.36916417	      5.49595215	      0.00090056	     -0.03106707	     -0.00485845	      0.01502672	     -0.01841745	     -0.00246358	      0.00181555	     -0.06860799	     -0.00630184	      0.01178497	     -0.18251188	     -0.00012080	     -0.00931309	      0.00312842	     -0.00050687	      0.00031224	      0.00012489	      0.00062447	      0.00039966	      0.00119899	      0.00067443	     -0.00001149	     -0.00012933	     -0.00015519	      0.00243808	      0.00855395	      0.00595057	     -0.00797542	      0.01925672	     -0.01826496	      0.00243808	      0.00855395	      0.00595057	      0.00053720	      0.01785172	     -0.00938042	      0.00387979	      0.00475674	      0.01579864	      0.00000000	      0.00739687	      0.00000000	     -0.00698366	     -0.03227360	     -0.00609682	      0.02166133	     -0.00100320	     -0.01119700	     -0.00086779	      0.01454585	     -0.00595057	      0.00239676	      0.02099230	     -0.01735584	     -0.00582660	      0.01260365	     -0.00533072	     -0.01214909	      0.02661229	     -0.02979420	     -0.02281054	      0.01409129	     -0.00714895	     -0.01512438	      0.03074463	     -0.03723241
      0.06666667	     -0.31660992	      0.13410102	     -0.13410102	      0.31660992	     -0.06410707	      0.51809078	      0.23287824	     -0.23287824	     -0.51809078	      0.06410707	    101.11459933	     74.96021388	     -1.76478268	    -34.47360736	     29.31862560	     73.68499368	      0.31034530	     -0.73894515	      0.34234842	     -0.36947258	     38.76018251	    -10.55487342	     -1.25774341	     10.07918580	     99.97516465	     12.57120265	     82.02848893	     71.13227800	     96.21980683	      0.89785209	     83.80167229	     53.09199012	     98.93803174	    -13.41841124	     90.18802313	     43.41790423	    101.36731105	    -14.16644506	     89.61950130	      5.48958929	      0.00086977	     -0.03096036	     -0.00484127	      0.01533942	     -0.01816455	     -0.00307865	      0.00210551	     -0.06842050	     -0.00598572	      0.01134670	     -0.18263324	     -0.00019829	     -0.00884218	      0.00292561	     -0.00040288	      0.00029877	      0.00011951	      0.00059754	      0.00038242	      0.00114727	      0.00064534	     -0.00001173	     -0.00013437	     -0.00016124	      0.00245703	      0.00862043	      0.00599682	     -0.00803741	      0.01940638	     -0.01840691	      0.00245703	      0.00862043	      0.00599682	      0.00054138	      0.01799047	     -0.00945332	      0.00390199	      0.00479371	      0.01585422	      0.00000000	      0.00751305	      0.00000000	     -0.00703794	     -0.03252443	     -0.00619332	      0.02072738	     -0.00091248	     -0.00979329	     -0.00087454	      0.01465890	     -0.00599682	      0.00241539	      0.02115546	     -0.01749073	     -0.00587189	      0.01270160	     -0.00537215	     -0.01224351	      0.02681912	     -0.03002576	     -0.02298782	      0.01420081	     -0.00720452	     -0.01524192	      0.03098358	     -0.03752178
      0.10000000	     -0.31309325	      0.13261152	     -0.13261152	      0.31309325	     -0.06339501	      0.51233621	      0.23029160	     -0.23029160	     -0.51233621	      0.06339501	    101.86051594	     74.12761018	     -1.77780138	    -38.52820679	     30.37013439	     78.73770983	      0.32608312	     -0.64594079	      0.35550868	     -0.32297039	     39.27998132	    -10.72342666	     -1.12287837	     10.30813694	     99.53716399	     12.75056425	     81.88030670	     70.85940500	     95.70660683	      1.43873460	     83.86088315	     52.38769199	     98.08199344	    -13.35286527	     90.06410023	     43.50296414	     99.74372853	    -14.15665227	     89.59336934	      5.50031021	      0.00090455	     -0.03108088	     -0.00486068	      0.01493027	     -0.01845020	     -0.00228272	      0.00173217	     -0.06866190	     -0.00639275	      0.01191188	     -0.18247618	     -0.00009637	     -0.00944850	      0.00318762	     -0.00053832	      0.00031147	      0.00012459	      0.00062294	      0.00039868	      0.00119604	      0.00067277	     -0.00001126	     -0.00012482	     -0.00014979	      0.00242974	      0.00852468	      0.00593021	     -0.00794813	      0.01919083	     -0.01820246	      0.00242974	      0.00852468	      0.00593021	      0.00053537	      0.01779064	     -0.00934832	      0.00386998	      0.00474047	      0.01577391	      0.00000000	      0.00734601	      0.00000000	     -0.00695976	     -0.03216317	     -0.00605458	      0.02217216	     -0.00105743	     -0.01205591	     -0.00086482	      0.01449608	     -0.00593021	      0.00238856	      0.02092048	     -0.01729646	     -0.00580667	      0.01256052	     -0.00531248	     -0.01210752	      0.02652123	     -0.02969225	     -0.02273249	      0.01404308	     -0.00712449	     -0.01507263	      0.03063944	     -0.03710502
      0.13333333	     -0.31317626	      0.13264668	     -0.13264668	      0.31317626	     -0.06341182	      0.51247203	      0.23035265	     -0.23035265	     -0.51247203	      0.06341182	    101.86474328	     74.14726237	     -1.77787516	    -38.52270440	     30.33004206	     78.60972540	      0.32253550	     -0.65521434	      0.35257775	     -0.32760717	     39.33903942	    -10.59885994	     -1.14274439	     10.25379141	     99.60910044	     12.75324935	     81.89387988	     70.67677391	     95.73252779	      1.33109494	     83.86328906	     52.04495921	     98.14771701	    -13.36691168	     90.06855801	     43.51554332	     99.92745783	    -14.15579338	     89.24970386	      5.50820917	      0.00090322	     -0.03107629	     -0.00485994	      0.01494137	     -0.01843930	     -0.00230333	      0.00174163	     -0.06865579	     -0.00638244	      0.01189746	     -0.18248025	     -0.00009919	     -0.00943314	      0.00318089	     -0.00053472	      0.00031087	      0.00012435	      0.00062175	      0.00039792	      0.00119376	      0.00067149	     -0.00001121	     -0.00012372	     -0.00014846	      0.00243038	      0.00852694	      0.00593179	     -0.00795024	      0.01919592	     -0.01820729	      0.00243038	      0.00852694	      0.00593179	      0.00053551	      0.01779536	     -0.00935080	      0.00387074	      0.00474172	      0.01577583	      0.00000000	      0.00734993	      0.00000000	     -0.00696161	     -0.03217170	     -0.00605783	      0.02217045	     -0.00105723	     -0.01205267	     -0.00086505	      0.01449992	     -0.00593179	      0.00238919	      0.02092602	     -0.01730104	     -0.00580821	      0.01256385	     -0.00531389	     -0.01211073	      0.02652827	     -0.02970012	     -0.02273851	      0.01404680	     -0.00712638	     -0.01507662	      0.03064756	     -0.03711486
      0.16666667	     -0.31876176	      0.13501244	     -0.13501244	      0.31876176	     -0.06454277	      0.52161198	      0.23446100	     -0.23446100	     -0.52161198	      0.06454277	    100.34748164	     75.46967973	     -1.75139395	    -31.22979823	     29.41062218	     71.81868838	      0.35069816	     -0.66099173	      0.37527940	     -0.33049586	     38.58950312	    -10.85327994	     -0.18473364	      8.67535067	     99.78555430	     12.60101304	     81.71997109	     72.62891870	     96.12033936	      0.89045491	     83.84819562	     53.39422059	     98.81072608	    -13.43635706	     89.97736234	     43.36170675	    101.21749274	    -14.16209406	     89.05498692	      5.49122036	      0.00087281	     -0.03097091	     -0.00484296	      0.01547577	     -0.01818954	     -0.00336358	      0.00224341	     -0.06833133	     -0.00583538	      0.01113994	     -0.18268942	     -0.00023108	     -0.00861822	      0.00283083	     -0.00035636	      0.00031040	      0.00012416	      0.00062079	      0.00039731	      0.00119192	      0.00067045	     -0.00001187	     -0.00013745	     -0.00016494	      0.00247373	      0.00867902	      0.00603758	     -0.00809203	      0.01953828	     -0.01853201	      0.00247373	      0.00867902	      0.00603758	      0.00054506	      0.01811274	     -0.00951757	      0.00392145	      0.00482629	      0.01590253	      0.00000000	      0.00761622	      0.00000000	     -0.00708577	     -0.03274548	     -0.00627899	      0.01941320	     -0.00079928	     -0.00810660	     -0.00088048	      0.01475853	     -0.00603758	      0.00243180	      0.02129924	     -0.01760961	     -0.00591180	      0.01278793	     -0.00540866	     -0.01232672	      0.02700140	     -0.03022983	     -0.02314405	      0.01429732	     -0.00725348	     -0.01534551	      0.03119416	     -0.03777680
